# 3ds Max Wavefront OBJ Exporter v0.97b - (c)2007 guruware
# File Created: 31.10.2018 16:22:12

mtllib bigswatch.mtl

#
# object VIFS001
#

v  -0.0000 152.0000 0.0000
v  -0.0000 -0.0000 -0.0000
v  480.0001 -0.0000 -0.0000
v  480.0001 152.0000 0.0000
v  -0.0000 152.0000 -2.0000
v  480.0001 152.0000 -2.0000
v  480.0001 0.0000 -2.0000
v  -0.0000 0.0000 -2.0000
# 8 vertices

vn 0.0000 -0.0000 1.0000
vn -0.0000 -0.0000 1.0000
vn 0.0000 0.0000 -1.0000
vn -0.0000 0.0000 -1.0000
vn 0.0000 1.0000 0.0000
vn 1.0000 0.0000 -0.0000
vn 0.0000 -1.0000 -0.0000
vn -0.0000 -1.0000 -0.0000
vn -1.0000 0.0000 -0.0000
# 9 vertex normals

vt 0.0000 1.0000 0.0000
vt 0.0000 0.6833 0.0000
vt 1.0000 0.6833 0.0000
vt 1.0000 1.0000 0.0000
vt 0.0001 0.6468 0.0000
vt 0.5986 0.6468 0.0000
vt 0.5985 0.6573 0.0000
vt 0.0000 0.6573 0.0000
vt 0.0000 0.6717 0.0000
vt 0.0792 0.6717 0.0000
vt 0.0792 0.6779 0.0000
vt 0.0000 0.6779 0.0000
vt 0.5985 0.6697 0.0000
vt 0.0000 0.6697 0.0000
vt 0.0001 0.6593 0.0000
vt 0.5986 0.6593 0.0000
vt 0.6823 0.6531 0.0000
vt 0.6031 0.6531 0.0000
vt 0.6031 0.6468 0.0000
vt 0.6823 0.6468 0.0000
# 20 texture coords

g VIFS001
usemtl VMtl001
f 1/1/1 2/2/1 3/3/1 
f 3/3/2 4/4/2 1/1/2 
f 5/1/3 6/4/3 7/3/3 
f 7/3/4 8/2/4 5/1/4 
f 1/5/5 4/6/5 6/7/5 
f 6/7/5 5/8/5 1/5/5 
f 4/9/6 3/10/6 7/11/6 
f 7/11/6 6/12/6 4/9/6 
f 3/13/7 2/14/7 8/15/7 
f 8/15/8 7/16/8 3/13/8 
f 2/17/9 1/18/9 5/19/9 
f 5/19/9 8/20/9 2/17/9 
# 12 faces

